<svg version="1.1" width="420" height="67" viewBox="2 20 420 67" xmlns="http://www.w3.org/2000/svg" xmlns:xlink="http://www.w3.org/1999/xlink">
  <!-- Exported by Scratch - http://scratch.mit.edu/ -->
  <text id="ID0.6938269822858274" fill="#000000" x="33" y="75.35" text-anchor="start" font-family="Gloria" font-size="22" transform="matrix(1.6044567823410034, 0, 0, 1.6044567823410034, 0, 0.7)">Ada's Poetry Generator</text>
  <path id="ID0.14025224652141333" fill="none" stroke="#000000" stroke-width="4" stroke-linecap="round" d="M 36 127 C 36 127 48.579 123.755 55 123 C 65.604 121.753 76.332 121.427 87 121 C 92.989 120.760 99.007 121.109 105 121 C 117.323 120.776 129.675 120.091 142 120 C 174.966 119.758 208.033 120 241 120 C 249.242 120 250.341 120.173 255 120 C 259.339 119.839 263.659 119.071 268 119 C 283.982 118.738 300.021 118.585 316 119 C 325.677 119.251 335.322 120.817 345 121 C 370.636 121.484 396.360 121.244 422 121 C 431.330 120.911 450 120 450 120 " transform="matrix(1, 0, 0, 1, -31, -42)"/>
</svg>